HIERARCHY
ROOT Hips
{
	OFFSET 0.000000 0.000000 0.000000
	CHANNELS 6 Xposition Yposition Zposition Zrotation Yrotation Xrotation 
	JOINT LowerBack
	{
		OFFSET 0.000000 0.000000 0.000000
		CHANNELS 3 Zrotation Yrotation Xrotation
		JOINT Spine
		{
			OFFSET 0.028270 2.035590 -0.193380
			CHANNELS 3 Zrotation Yrotation Xrotation
			JOINT Spine1
			{
				OFFSET 0.056720 2.048850 -0.042750
				CHANNELS 3 Zrotation Yrotation Xrotation
				JOINT Neck
				{
					OFFSET 0.000000 0.000000 0.000000
					CHANNELS 3 Zrotation Yrotation Xrotation
					JOINT Neck1
					{
						OFFSET -0.054170 1.746240 0.172020
						CHANNELS 3 Zrotation Yrotation Xrotation
						JOINT Head
						{
							OFFSET 0.104070 1.761360 -0.123970
							CHANNELS 3 Zrotation Yrotation Xrotation
							End Site
							{
								OFFSET 0.000000 0.000000 0.000000
							}
						}
					}
				}
				JOINT LeftShoulder
				{
					OFFSET 0.000000 0.000000 0.000000
					CHANNELS 3 Zrotation Yrotation Xrotation
					JOINT LeftArm
					{
						OFFSET 3.362410 1.200890 -0.311210
						CHANNELS 3 Zrotation Yrotation Xrotation
						JOINT LeftForeArm
						{
							OFFSET 4.983000 -0.000000 -0.000000
							CHANNELS 3 Zrotation Yrotation Xrotation
							JOINT LeftHand
							{
								OFFSET 3.483560 -0.000000 -0.000000
								CHANNELS 3 Zrotation Yrotation Xrotation
								JOINT LeftFingerBase
								{
									OFFSET 0.000000 0.000000 0.000000
									CHANNELS 3 Zrotation Yrotation Xrotation
									JOINT LeftHandIndex1
									{
										OFFSET 0.715260 -0.000000 -0.000000
										CHANNELS 3 Zrotation Yrotation Xrotation
										End Site
										{
											OFFSET 0.000000 0.000000 0.000000
										}
									}
								}
								JOINT LThumb
								{
									OFFSET 0.000000 0.000000 0.000000
									CHANNELS 3 Zrotation Yrotation Xrotation
									End Site
									{
										OFFSET 0.000000 0.000000 0.000000
									}
								}
							}
						}
					}
				}
				JOINT RightShoulder
				{
					OFFSET 0.000000 0.000000 0.000000
					CHANNELS 3 Zrotation Yrotation Xrotation
					JOINT RightArm
					{
						OFFSET -3.136600 1.374050 -0.404650
						CHANNELS 3 Zrotation Yrotation Xrotation
						JOINT RightForeArm
						{
							OFFSET -5.241900 -0.000000 -0.000000
							CHANNELS 3 Zrotation Yrotation Xrotation
							JOINT RightHand
							{
								OFFSET -3.444170 -0.000000 -0.000000
								CHANNELS 3 Zrotation Yrotation Xrotation
								JOINT RightFingerBase
								{
									OFFSET 0.000000 0.000000 0.000000
									CHANNELS 3 Zrotation Yrotation Xrotation
									JOINT RightHandIndex1
									{
										OFFSET -0.622530 -0.000000 -0.000000
										CHANNELS 3 Zrotation Yrotation Xrotation
										End Site
										{
											OFFSET 0.000000 0.000000 0.000000
										}
									}
								}
								JOINT RThumb
								{
									OFFSET 0.000000 0.000000 0.000000
									CHANNELS 3 Zrotation Yrotation Xrotation
									End Site
									{
										OFFSET 0.000000 0.000000 0.000000
									}
								}
							}
						}
					}
				}
			}
		}
	}
}
}
MOTION
Frames: 15
Frame Time: 0.008333
4.972592 17.373621 0.906503 -154.555392 -82.476768 163.408475 0.693063 -4.807235 -9.182123 0.259902 -5.367397 -5.539000 -3.668161 -5.414929 -5.483766 5.018059 -4.706847 5.817061 -0.973221 -0.288647 3.783000 0.000000 0.000000 0.000000 22.785387 4.950306 -8.944550 -31.383074 -62.555111 -47.941138 172.939953 -58.199701 179.506056 30.006970 -16.156177 -4.761268 -0.363909 1.238167 -0.000000 0.000000 0.000000 0.000000 0.000000 0.000000 0.000000 -6.663330 -10.596028 -7.652510 43.104197 59.362257 -43.802975 -174.594480 55.668413 179.690250 -17.166829 20.153693 -3.291466 0.084622 -1.236310 -0.000000 0.000000 0.000000 0.000000 0.000000 0.000000 0.000000 
4.962863 17.374345 0.898830 -147.325868 -83.458521 156.343520 0.828732 -4.920068 -9.248280 0.318065 -5.504103 -5.579869 -3.623873 -5.544191 -5.638754 4.863632 -4.773623 5.792150 -0.929735 -0.286340 3.779406 0.000000 0.000000 0.000000 22.670023 4.679294 -8.941884 -31.440147 -62.726766 -47.951921 172.923490 -58.357899 179.504730 30.080137 -16.191475 -4.782543 -0.361525 1.237241 -0.000000 0.000000 0.000000 0.000000 0.000000 0.000000 0.000000 -6.868428 -10.614465 -7.710374 42.344412 59.827490 -44.706212 -174.602491 56.380126 179.686943 -17.402931 20.274577 -3.356741 0.086285 -1.235699 -0.000000 0.000000 0.000000 0.000000 0.000000 0.000000 0.000000 
4.954166 17.375218 0.890905 -135.151647 -84.587568 144.348706 0.946530 -5.139581 -9.303183 0.389855 -5.730835 -5.617927 -3.572000 -5.759357 -5.805395 4.683313 -4.836889 5.766705 -0.875062 -0.283643 3.775713 0.000000 0.000000 0.000000 22.511604 4.358886 -8.936286 -31.487583 -62.931469 -47.964038 172.912529 -58.541937 179.503635 30.134210 -16.231572 -4.802027 -0.358356 1.236133 -0.000000 0.000000 0.000000 0.000000 0.000000 0.000000 0.000000 -7.142683 -10.648664 -7.781276 41.702515 60.300406 -45.519186 -174.605089 57.204787 179.682969 -17.643729 20.368946 -3.418927 0.086596 -1.235121 -0.000000 0.000000 0.000000 0.000000 0.000000 0.000000 0.000000 
4.946919 17.376243 0.882647 -113.838818 -85.881359 123.222167 0.754320 -5.544664 -9.340862 0.422568 -6.079924 -5.648719 -3.497052 -6.096675 -5.980915 4.489071 -4.890930 5.743334 -0.807688 -0.280770 3.772633 0.000000 0.000000 0.000000 22.319882 3.970465 -8.932115 -31.529192 -63.176475 -47.976338 172.905510 -58.754950 179.502770 30.164796 -16.269312 -4.816738 -0.354133 1.234651 -0.000000 0.000000 0.000000 0.000000 0.000000 0.000000 0.000000 -7.468864 -10.709625 -7.861287 41.171050 60.782977 -46.242508 -174.613082 58.159525 179.678928 -17.845026 20.418245 -3.466013 0.084837 -1.234346 -0.000000 0.000000 0.000000 0.000000 0.000000 0.000000 0.000000 
4.941204 17.377442 0.874093 -81.717775 -87.062363 91.284262 -0.142186 -6.008670 -9.364542 0.312076 -6.386982 -5.674515 -3.385232 -6.405060 -6.165638 4.270106 -4.928878 5.726561 -0.732421 -0.278208 3.771598 0.000000 0.000000 0.000000 22.106605 3.578361 -8.923267 -31.563219 -63.425350 -47.978741 172.903682 -59.002034 179.501794 30.170077 -16.307446 -4.827284 -0.348602 1.233430 -0.000000 0.000000 0.000000 0.000000 0.000000 0.000000 0.000000 -7.828159 -10.725403 -7.940386 40.756180 61.308212 -46.871019 -174.636397 59.258869 179.675309 -17.997607 20.397494 -3.491588 0.081303 -1.232349 -0.000000 0.000000 0.000000 0.000000 0.000000 0.000000 0.000000 
4.936517 17.378783 0.867277 -37.760468 -87.974742 47.522298 -1.673365 -6.242661 -9.401825 0.018752 -6.424116 -5.707942 -3.250261 -6.463766 -6.361025 3.988781 -4.945114 5.709962 -0.660733 -0.276120 3.771538 0.000000 0.000000 0.000000 21.856136 3.289371 -8.887334 -31.625060 -63.671208 -47.954130 172.900868 -59.273599 179.500222 30.151701 -16.337355 -4.832051 -0.342267 1.233626 -0.000000 0.000000 0.000000 0.000000 0.000000 0.000000 0.000000 -8.226292 -10.617994 -8.006099 40.435086 61.927921 -47.421775 -174.679620 60.513440 179.673014 -18.063132 20.311182 -3.488594 0.076209 -1.229238 -0.000000 0.000000 0.000000 0.000000 0.000000 0.000000 0.000000 
4.934461 17.380249 0.857976 -27.579594 -87.867017 37.504369 -1.932813 -6.025481 -9.415395 -0.045210 -6.192742 -5.763423 -3.186568 -6.240035 -6.594334 3.688239 -4.911232 5.693879 -0.596177 -0.273338 3.771201 0.000000 0.000000 0.000000 21.573219 3.129699 -8.829509 -31.733353 -63.927870 -47.895454 172.917351 -59.561946 179.499088 30.117004 -16.354754 -4.830450 -0.336304 1.233713 -0.000000 0.000000 0.000000 0.000000 0.000000 0.000000 0.000000 -8.637659 -10.286844 -8.097061 40.054772 62.555179 -47.993450 -174.745266 61.959334 179.671210 -18.035235 20.163089 -3.456080 0.066745 -1.223565 0.000000 0.000000 0.000000 0.000000 0.000000 0.000000 0.000000 
4.934524 17.381849 0.848231 -21.199305 -87.471723 31.296748 -2.032862 -5.822423 -9.396229 -0.073074 -5.989635 -5.816480 -3.126482 -6.039576 -6.842481 3.385322 -4.841461 5.673559 -0.525999 -0.270159 3.769674 0.000000 0.000000 0.000000 21.262457 2.957713 -8.766086 -31.895380 -64.242975 -47.814920 172.936814 -59.870306 179.498077 30.073380 -16.356110 -4.822847 -0.330172 1.233483 -0.000000 0.000000 0.000000 0.000000 0.000000 0.000000 0.000000 -9.072895 -9.911707 -8.197015 39.624368 63.173388 -48.600780 -174.842588 63.581813 179.670415 -17.912567 19.963384 -3.396397 0.055033 -1.217319 0.000000 0.000000 0.000000 0.000000 0.000000 0.000000 0.000000 
4.936894 17.383577 0.838024 -16.896902 -86.902582 27.173361 -2.081018 -5.637901 -9.341251 -0.086356 -5.803392 -5.865533 -3.063572 -5.852881 -7.103679 3.083996 -4.736549 5.647316 -0.449977 -0.266616 3.766522 0.000000 0.000000 0.000000 20.930878 2.775929 -8.698141 -32.115838 -64.615597 -47.710914 172.957515 -60.197551 179.497079 30.030614 -16.336453 -4.809346 -0.324090 1.232826 -0.000000 0.000000 0.000000 0.000000 0.000000 0.000000 0.000000 -9.525500 -9.489767 -8.302380 39.100411 63.773560 -49.294975 -174.980196 65.377417 179.670725 -17.701898 19.747592 -3.317733 0.041801 -1.211162 -0.000000 0.000000 0.000000 0.000000 0.000000 0.000000 0.000000 
4.941554 17.385448 0.827397 -13.812364 -86.229000 24.274630 -2.114473 -5.461826 -9.252656 -0.093579 -5.619601 -5.910624 -2.994795 -5.666757 -7.375291 2.781241 -4.602033 5.612671 -0.367075 -0.262633 3.761108 0.000000 0.000000 0.000000 20.579646 2.589107 -8.625192 -32.395126 -65.040534 -47.582980 172.978223 -60.540700 179.496012 29.998165 -16.290718 -4.790250 -0.318307 1.231632 -0.000000 0.000000 0.000000 0.000000 0.000000 0.000000 0.000000 -10.006277 -9.021913 -8.410963 38.473717 64.342216 -50.101154 -175.159436 67.332045 179.672046 -17.429251 19.503420 -3.223784 0.028131 -1.204973 -0.000000 0.000000 0.000000 0.000000 0.000000 0.000000 0.000000 
4.948682 17.387493 0.816351 -11.486467 -85.498230 22.136695 -2.150001 -5.283462 -9.126389 -0.099295 -5.426128 -5.950891 -2.918058 -5.469734 -7.655647 2.477209 -4.442978 5.567167 -0.277231 -0.258149 3.752737 0.000000 0.000000 0.000000 20.210632 2.398497 -8.547752 -32.733463 -65.519371 -47.432516 172.997733 -60.894038 179.494854 29.980666 -16.219427 -4.766459 -0.312980 1.229901 -0.000000 0.000000 0.000000 0.000000 0.000000 0.000000 0.000000 -10.515343 -8.508737 -8.519947 37.712590 64.866262 -51.061827 -175.385578 69.437566 179.674070 -17.115426 19.312307 -3.132241 0.014799 -1.200198 0.000000 0.000000 0.000000 0.000000 0.000000 0.000000 0.000000 
4.958139 17.389745 0.804953 -9.660581 -84.731814 20.502581 -2.188020 -5.096466 -8.965117 -0.103918 -5.217446 -5.986172 -2.831724 -5.256666 -7.941093 2.163171 -4.271018 5.507844 -0.178661 -0.253006 3.740589 0.000000 0.000000 0.000000 19.819160 2.203944 -8.465601 -33.122753 -66.044302 -47.262503 173.015709 -61.256279 179.493589 29.984269 -16.117070 -4.737470 -0.308282 1.227452 -0.000000 0.000000 0.000000 0.000000 0.000000 0.000000 0.000000 -11.075836 -7.960994 -8.627354 36.854667 65.332331 -52.163066 -175.654811 71.682839 179.676417 -16.796504 19.153239 -3.046300 0.002812 -1.196705 0.000000 0.000000 0.000000 0.000000 0.000000 0.000000 0.000000 
4.970109 17.392284 0.793250 -8.174883 -83.946374 19.206761 -2.230960 -4.896036 -8.766802 -0.108356 -4.989326 -6.015521 -2.734322 -5.023435 -8.229156 1.834868 -4.094270 5.432725 -0.070844 -0.247109 3.724050 0.000000 0.000000 0.000000 19.402063 2.002129 -8.379841 -33.555663 -66.614430 -47.076751 173.032142 -61.622438 179.492279 30.004643 -15.991125 -4.704587 -0.304119 1.224412 -0.000000 0.000000 0.000000 0.000000 0.000000 0.000000 0.000000 -11.695870 -7.386599 -8.730096 35.916704 65.730074 -53.402391 -175.967523 74.067042 179.678420 -16.511074 19.093582 -2.983258 -0.006955 -1.195780 0.000000 0.000000 0.000000 0.000000 0.000000 0.000000 0.000000 
4.984529 17.395179 0.781297 -6.931210 -83.150038 18.150035 -2.276389 -4.679729 -8.533124 -0.112269 -4.740607 -6.038304 -2.625071 -4.768852 -8.516235 1.484269 -3.922737 5.339975 0.047128 -0.240345 3.702544 0.000000 0.000000 0.000000 18.953080 1.790664 -8.291250 -34.022508 -67.223933 -46.877597 173.047236 -61.988288 179.490998 30.037286 -15.845351 -4.668007 -0.300392 1.220813 -0.000000 0.000000 0.000000 0.000000 0.000000 0.000000 0.000000 -12.391676 -6.798311 -8.825331 34.958422 66.054484 -54.739397 -176.320980 76.596126 179.679445 -16.300055 19.143207 -2.951414 -0.013667 -1.197881 0.000000 0.000000 0.000000 0.000000 0.000000 0.000000 0.000000 
5.001228 17.398533 0.769175 -5.862714 -82.348976 17.264529 -2.322250 -4.446229 -8.265297 -0.115543 -4.471293 -6.053790 -2.504117 -4.492746 -8.799231 1.105385 -3.762999 5.228606 0.175490 -0.232643 3.675711 0.000000 0.000000 0.000000 18.466151 1.566992 -8.201027 -34.515003 -67.867922 -46.665163 173.061981 -62.352115 179.489830 30.073604 -15.688667 -4.628825 -0.296864 1.216827 -0.000000 0.000000 0.000000 0.000000 0.000000 0.000000 0.000000 -13.173036 -6.206657 -8.910009 34.043486 66.304631 -56.124607 -176.714814 79.290631 179.678835 -16.204606 19.315201 -2.959868 -0.016550 -1.203552 -0.000000 0.000000 0.000000 0.000000 0.000000 0.000000 0.000000 
